<svg id="Layer_1" data-name="Layer 1" xmlns="http://www.w3.org/2000/svg" viewBox="0 0 500 500"><defs><style>.cls-1{fill:#0c14e9;}.cls-2{fill:#fff;}</style></defs><rect class="cls-1" width="500" height="500" rx="250"/><path class="cls-2" d="M340.76,65H157.86A23,23,0,0,0,134.8,88.07V412.26a23,23,0,0,0,23.06,23.07H341.17a23,23,0,0,0,23.07-23.07V88.07C364.24,75.3,353.53,65,340.76,65ZM249.31,424.2a21.83,21.83,0,1,1,21.84-21.83A21.71,21.71,0,0,1,249.31,424.2Zm86.1-75a17.4,17.4,0,0,1-17.3,17.3H180.52a17.4,17.4,0,0,1-17.3-17.3V105.78a17.41,17.41,0,0,1,17.3-17.3H317.69A17.41,17.41,0,0,1,335,105.78l.41,243.45Z"/><path class="cls-2" d="M264.14,241.31a9.14,9.14,0,0,1-9.06,9.06h-12a9.14,9.14,0,0,1-9.06-9.06V129.67a9.14,9.14,0,0,1,9.06-9.06h12a9.14,9.14,0,0,1,9.06,9.06Z"/><circle class="cls-2" cx="249.31" cy="277.97" r="14.83"/></svg>