<svg id="Layer_1" data-name="Layer 1" xmlns="http://www.w3.org/2000/svg" viewBox="0 0 500 500"><defs><style>.cls-1{fill:none;}.cls-2{fill:#fff;}</style></defs><rect class="cls-1" width="500" height="500"/><path class="cls-2" d="M367.7,10.33H130.8a29.83,29.83,0,0,0-29.88,29.88V460.12A29.83,29.83,0,0,0,130.8,490H368.24a29.83,29.83,0,0,0,29.88-29.88V40.21C398.12,23.67,384.24,10.33,367.7,10.33ZM249.25,475.59a28.28,28.28,0,1,1,28.28-28.28A28.12,28.12,0,0,1,249.25,475.59Zm111.52-97.1a22.54,22.54,0,0,1-22.41,22.4H160.15a22.54,22.54,0,0,1-22.41-22.4V63.15a22.55,22.55,0,0,1,22.41-22.41H337.82a22.54,22.54,0,0,1,22.41,22.41l.54,315.34Z"/><path class="cls-2" d="M268.46,238.69a11.84,11.84,0,0,1-11.74,11.74H241.25a11.85,11.85,0,0,1-11.74-11.74V94.1a11.84,11.84,0,0,1,11.74-11.74h15.47A11.84,11.84,0,0,1,268.46,94.1Z"/><circle class="cls-2" cx="249.25" cy="286.18" r="19.21"/></svg>