<svg id="Layer_1" data-name="Layer 1" xmlns="http://www.w3.org/2000/svg" viewBox="0 0 256 256"><defs><style>.cls-1{fill:none;}.cls-2{fill:#fff;}</style></defs><path class="cls-1" d="M3,253V3H253V253Z"/><path class="cls-2" d="M188,3l-3,16a20.9,20.9,0,0,0-5,2l-13.5-9.5-15,15,9,12.5c-.5,2-1.5,3.5-2,5.5L143,47V68l15.5,2.5a20.9,20.9,0,0,0,2,5l-9,13.5,15,15L180,95a24.37,24.37,0,0,0,5.5,2l2.5,16h20.5l3-15.5a34.47,34.47,0,0,0,5-2l13.5,9,15-15-9.5-13a38,38,0,0,0,2-5.5L253,68V47l-16-2.5a20.9,20.9,0,0,0-2-5L244,26,229.5,11.5l-13,9.5a20.9,20.9,0,0,0-5-2L209,3Zm8.5,10h4l2,13.5,3,1A43.25,43.25,0,0,1,214,31l3,2,11.5-8.5L231,27l-8,11.5,1.5,2.5a66.78,66.78,0,0,1,3.5,9l1,3,14,2v4l-13.5,3-1,3a43.25,43.25,0,0,1-3.5,8.5l-2,3L231.5,88l-3,3L217,83l-2.5,1.5a66.78,66.78,0,0,1-9,3.5l-3,1L200,103h-4l-2-13.5-3-1a43.25,43.25,0,0,1-8.5-3.5l-3-2-12,8-3-3,8-11.5L171,74c-1.5-3-2.5-6.5-3.5-9l-1-3L153,59.5v-4L167,53l.5-3.5a26.14,26.14,0,0,1,3-8l2-2.5-8-11.5,3-3,11.5,8,2.5-1c3.5-1.5,6.5-3,9.5-4l3-.5ZM23,28A10,10,0,0,0,13,38V183a10,10,0,0,0,10,10H98v15H83a15,15,0,0,0-15,15v10H188V223a15,15,0,0,0-15-15H158V193h75a10,10,0,0,0,10-10V104.84a65.82,65.82,0,0,1-10,7.88V153H23V38H136.17a65.79,65.79,0,0,1,4.2-10Zm175,9.5a20,20,0,0,0,0,40,19.74,19.74,0,0,0,20-20A20.06,20.06,0,0,0,198,37.5ZM198,48a9.72,9.72,0,0,1,10,10,10,10,0,1,1-10-10ZM23,163H233v20H23Zm185,5v10h10V168ZM108,193h40v15H108ZM83,218h90a5,5,0,0,1,5,5H78A5,5,0,0,1,83,218Z"/></svg>