<svg id="Layer_1" data-name="Layer 1" xmlns="http://www.w3.org/2000/svg" viewBox="0 0 256 256"><defs><style>.cls-1{fill:none;}.cls-2{fill:#0c14e9;}</style></defs><path class="cls-1" d="M3,253V3H253V253Z"/><path class="cls-2" d="M248.16,7.84,242.84,8s-36.75.49-72.18,18.12a127.44,127.44,0,0,0-33.13,23.76C124.86,62.55,107,83.35,90.66,103H47.53a5,5,0,0,0-3.44,1.88l-25,30a5,5,0,0,0,2.66,8l30.47,7.66c-.24.29-1.72,2.19-1.72,2.19l-.63.62-.31.94a12.86,12.86,0,0,0-.31,3.44,17.55,17.55,0,0,0,.31,2.18L38.78,178a9.38,9.38,0,0,0-.62,1.56,8.16,8.16,0,0,0-.16,2,13,13,0,0,0,1.25,5c1.72,3.87,5.39,9,13.28,16.88s13,11.56,16.88,13.28a13,13,0,0,0,5,1.25,8.16,8.16,0,0,0,2-.16,9.38,9.38,0,0,0,1.56-.62l18.28-10.78a19.81,19.81,0,0,0,2,.31,12.86,12.86,0,0,0,3.44-.31l.94-.32.78-.62,2-1.56,7.66,30.31a5,5,0,0,0,8,2.66l30-25A5,5,0,0,0,153,208V165.19c19.79-16.45,40.72-34.32,53.12-46.72a126.58,126.58,0,0,0,23.6-33.13C247.28,50,248,13.16,248,13.16ZM237.38,18.62A164.06,164.06,0,0,1,220.81,81a115.77,115.77,0,0,1-21.72,30.47c-12.18,12.19-33.63,30.47-53.59,47a4.45,4.45,0,0,0-1.09.94C121,178.78,99.93,195.56,98.62,196.59a9.23,9.23,0,0,1-3.12-.78c-3.73-1.52-10.27-5.43-20-15.15S61.71,164.23,60.19,160.5a9.21,9.21,0,0,1-.78-3.13c1-1.3,17.57-22.16,36.87-45.46a4.78,4.78,0,0,0,1.25-1.57c16.39-19.76,34.55-40.95,47-53.43A116.29,116.29,0,0,1,175,35.19,162.68,162.68,0,0,1,237.38,18.62ZM173,58a25,25,0,1,0,25,25A25.07,25.07,0,0,0,173,58Zm0,10a15,15,0,1,1-15,15A14.93,14.93,0,0,1,173,68ZM50.34,113h32c-9.59,11.7-17.49,21.64-23.29,28.91L31.91,135Zm4.22,58a94.58,94.58,0,0,0,13.75,16.72A94.76,94.76,0,0,0,85,201.44l-10.78,6.4a3.3,3.3,0,0,1-.78-.31c-2-.9-6.52-3.73-13.91-11.09s-10.19-11.86-11.09-13.91a3.3,3.3,0,0,1-.31-.78ZM143,173.62v32l-22,18.43-6.88-27C121.34,191.26,131.18,183.35,143,173.62ZM35,194.09c-8.16,6.27-15.55,7.07-22.19,13.6-3.32,3.26-5.95,7.89-7.5,14.22S3.16,236.4,3.16,247.84v5h5c23,0,34.2-3.63,40.93-10.46S57,227.92,62.06,221L53.94,215c-6.49,8.83-7.93,16.15-12,20.31-3.62,3.68-11.66,6.37-28.28,7,.25-7.27.6-14.24,1.56-18.13,1.25-5.06,2.77-7.5,4.69-9.37,3.8-3.75,11.26-5.43,21.09-13Zm38.44,14.22-.47.32v-.16S73.27,208.39,73.47,208.31Z"/></svg>