<svg id="Layer_1" data-name="Layer 1" xmlns="http://www.w3.org/2000/svg" viewBox="0 0 256 256"><defs><style>.cls-1{fill:none;}.cls-2{fill:#fff;}</style></defs><path class="cls-1" d="M3,253V3H253V253Z"/><path class="cls-2" d="M118,3C81.87,3,55.23,15.48,38,35S13,80.79,13,108a104.62,104.62,0,0,0,18.44,59.37C41.91,182.61,48,200.54,48,218.94V253H58V218.94c0-20.43-6.8-40.22-18.12-56.88l-.32-.47A94.15,94.15,0,0,1,23,108c0-25.29,7.23-49.08,22.5-66.41S84.13,13,118,13s56.07,9.86,70.63,25S210.32,74,213,96.59l.16,1.1.47.78,23.59,40.47h-.16a3.83,3.83,0,0,1-1.56,5.62v.16L213,156v30c0,18.71-15.43,33.3-34.06,31.56h-.16l-15.47-1.09-5.31-.32V253h10V226.75l10,.78h.16C202.45,229.7,223,210.21,223,186V162.06l17.19-8.59h.15l.16-.16a14.13,14.13,0,0,0,5.31-19.22v-.15l-23.12-40C219.72,70.52,212,48,195.81,31.12,179.23,13.88,154,3,118,3ZM101.28,33l-.78,4.22L98,52.06a39.12,39.12,0,0,0-6.72,2.81L78.94,46l-3.44-2.5-3,3L61.91,56.91l-3,3.12,2.5,3.44,8.9,12.34a47.78,47.78,0,0,0-2.81,6.72L52.06,85.66,48,86.44v23.28l4.22.78L67.06,113a47.78,47.78,0,0,0,2.81,6.72L61,132.06l-2.5,3.44,3,3,10.47,10.62,3.12,3,3.44-2.5,12.34-8.9a47.78,47.78,0,0,0,6.72,2.81l2.5,14.84.78,4.22h23.44l.62-4.22L127.53,143a63.52,63.52,0,0,0,6.72-2.81l12.81,8.9,3.44,2.35,3-3L164.09,138l3-3-2.5-3.44-8.9-12.34a49,49,0,0,0,2.81-6.56l15.15-2.19,4.38-.63V86.28l-4.22-.78L158.47,83a45.39,45.39,0,0,0-2.81-6.87l8.9-12.82,2.5-3.43-3-3L153.47,46.44l-3-3L147.06,46l-12.34,8.91A46.63,46.63,0,0,0,128,52.06l-2.5-14.84L124.72,33Zm8.44,10h6.56l2.35,13.28.46,3.44,3.29.62A38.74,38.74,0,0,1,133,64.88l2.81,1.56,2.66-1.88,11.09-8,4.38,4.54-8,11.56-2,2.65,1.87,2.82a35.73,35.73,0,0,1,4.38,10.62l.78,3.13,3.28.47L168,94.72v6.41l-17.19,2.34-.62,3.44a39,39,0,0,1-4.53,10.62l-1.57,2.81L146,123l8,10.94-4.53,4.53-11.57-8.13-2.34-1.71-2.81,1.4c-4,2-7.7,3.89-10.94,4.69l-3.12.78-.63,3.12-2.34,13.91h-6.41l-2.34-13.44-.47-3.28-3.28-.62a39.08,39.08,0,0,1-10.63-4.53l-2.81-1.57L87.06,131l-10.94,8-4.53-4.38,8-11.09,1.88-2.66L79.87,118a39,39,0,0,1-4.53-10.63l-.62-3.28-3.44-.47L58,101.28V94.56l13.91-2.65,3.28-.63.62-3.12a39.08,39.08,0,0,1,4.53-10.63l1.57-2.81L80,72.06l-8-10.94,4.38-4.53,11.09,8,3,2,3-2a26.85,26.85,0,0,1,10.15-4.22l3.29-.62.46-3.44ZM113,73a25,25,0,1,0,25,25A25.1,25.1,0,0,0,113,73Zm0,10A15,15,0,1,1,98,98,15,15,0,0,1,113,83Z"/></svg>