<svg id="Layer_1" data-name="Layer 1" xmlns="http://www.w3.org/2000/svg" viewBox="0 0 256 256"><defs><style>.cls-1{fill:none;}.cls-2{fill:#fff;}</style></defs><path class="cls-1" d="M3,253V3H253V253Z"/><path class="cls-2" d="M33,23V198h5c48.67,0,87.75,19.47,87.75,19.47l2.25,1.12,2.25-1.12S169.33,198,218,198h5V23h-5c-49.2,0-86.8,18.11-90,19.69C124.8,41.11,87.2,23,38,23ZM43,33.45c41.23,1.17,73.26,14.78,80,17.83V205.52a222.66,222.66,0,0,0-80-17.07Zm170,0v155a222.66,222.66,0,0,0-80,17.07V51.28C139.74,48.23,171.77,34.62,213,33.45ZM13,48V218h5c64,0,108,19.57,108,19.57l2,.9,2-.9S174,218,238,218h5V48H233V208.35c-61,1-102.21,18.2-105,19.42-2.79-1.22-44-18.38-105-19.42V48Z"/></svg>