<svg id="Layer_1" data-name="Layer 1" xmlns="http://www.w3.org/2000/svg" viewBox="0 0 256 256"><defs><style>.cls-1{fill:none;}.cls-2{fill:#fff;}</style></defs><path class="cls-1" d="M2.79,253.27V3.27h250v250Z"/><path class="cls-2" d="M177.79,13.27a25,25,0,1,0,25,25A25.07,25.07,0,0,0,177.79,13.27Zm0,10a15,15,0,1,1-15,15A14.92,14.92,0,0,1,177.79,23.27Zm-75,25a14.82,14.82,0,0,0-7.13,1.88,5.9,5.9,0,0,0-1.36.66L59.67,75.7a4.81,4.81,0,0,0-1.47,1.64c-3.12,2.75-5.41,6.46-5.41,10.93a15.08,15.08,0,0,0,15,15c2.44,0,4.36-1.32,6.39-2.36a4.9,4.9,0,0,0,3-.94L105.08,79.9l13.57,4.29L97.32,119a4.8,4.8,0,0,0-.54,1.23,25.06,25.06,0,0,0-3.91,11.95,4.22,4.22,0,0,0-.31.47L76.25,158.27h-36a17.5,17.5,0,1,0,0,35H82.46a25,25,0,0,0,20.39-10.54l14.49-20.47L141,176.85l-7.89,40.53a6.94,6.94,0,0,0-.07,1,15,15,0,0,0-.24,2.36,17.57,17.57,0,0,0,17.5,17.5c7.29,0,12.85-4.94,15.47-11.32a5.09,5.09,0,0,0,1.72-2.93v0l10.14-53.34a5.4,5.4,0,0,0,.07-1.21,7.38,7.38,0,0,0,.1-1.18,14.63,14.63,0,0,0-3.69-9.39,5,5,0,0,0-1.29-1.8L148.67,135.7,157.11,119l7,15.48a4.77,4.77,0,0,0,.57,1,15,15,0,0,0,13.08,7.79h35a15,15,0,0,0,0-30H186.11l-13.48-32.1c-.72-6.2-4.58-11.24-9.7-14.42a5.25,5.25,0,0,0-1.76-1.62l-12.52-7a4.71,4.71,0,0,0-1.37-.51l-40.82-8.91a5.13,5.13,0,0,0-1.17-.09,11.75,11.75,0,0,0-2.5-.36Zm0,10a5.22,5.22,0,0,1,1.25.2,5.37,5.37,0,0,0,1.95.12l-.78.09,39.22,8.58,10.18,5.66L154,71.11a5,5,0,0,0,2.76,3,10,10,0,0,1,6,9.16,9.77,9.77,0,0,1-1.33,4.87A5,5,0,0,0,161,92l-.54-1.75L138,134.62a5,5,0,0,0,1.15,6l26,23.1-.39-1.07a5.18,5.18,0,0,0,1.33,1.95,5,5,0,0,1,1.64,3.67,4.15,4.15,0,0,0-.08.71,4.94,4.94,0,0,0,.24,2.32l-.41-1.17-9.1,48h4.12a5,5,0,0,0-4.93,4.08,7.48,7.48,0,0,1-14.84-1.39,7.69,7.69,0,0,1,.16-1.48c0-.06,0-.12,0-.18l8.49-43.75a5,5,0,0,0-2.28-5.21L113,147.81l.48,1.93a5,5,0,0,0-2.55-3.24,14.82,14.82,0,0,1-5.28-22,4.94,4.94,0,0,0,.76-4.23l.55,2L130.51,84a5,5,0,0,0-2.76-7.38l-22-7a4.92,4.92,0,0,0-4.41.71L71.8,91.5a6,6,0,0,0-.83.56,4.72,4.72,0,0,1-3.18,1.21,4.91,4.91,0,0,1-5-5,4.83,4.83,0,0,1,2.42-4.21,5.93,5.93,0,0,0,.73-.57l0-.06L99.18,59.64l-.94.14a4.91,4.91,0,0,0,1.89-.72A4.88,4.88,0,0,1,102.79,58.27Zm65.57,38.52,9.82,23.42a5,5,0,0,0,4.61,3.06h30a5,5,0,0,1,0,10h-35a5,5,0,0,1-4.51-2.89,4.88,4.88,0,0,0-1.58-1.91l1,.64-9.76-21.54ZM96.31,145.36a27.41,27.41,0,0,0,8,8.21,4.94,4.94,0,0,0,1.66,1.68l2.84,1.76L94.69,177a15,15,0,0,1-12.23,6.32H40.29a7.5,7.5,0,1,1,0-15H79A5,5,0,0,0,83.22,166Z"/></svg>