<svg id="Layer_1" data-name="Layer 1" xmlns="http://www.w3.org/2000/svg" viewBox="0 0 256 256"><defs><style>.cls-1{fill:none;}.cls-2{fill:#fff;}</style></defs><path class="cls-1" d="M3,253V3H253V253Z"/><path class="cls-2" d="M98,13a5,5,0,0,0-3.65,8.42l16.3,17.39L93.78,65.31a5,5,0,0,0,.46,6l39.38,45a5,5,0,0,0,3.76,1.71H208a5,5,0,0,0,5-5V83h15v65h10V83h5a5,5,0,0,0,3.54-8.54l-60-60A5,5,0,0,0,183,13Zm11.54,10h71.39l50,50H156.42Zm8.17,23.34L150.6,81.42A5,5,0,0,0,154.25,83H203v25H139.64L104.23,67.52ZM36.13,68A13.17,13.17,0,0,0,23,81.18V204.82A13.17,13.17,0,0,0,36.13,218H98a15.16,15.16,0,0,1-15,15,5,5,0,0,0,0,10h70a5,5,0,0,0,0-10,15.16,15.16,0,0,1-15-15h61.87A13.17,13.17,0,0,0,213,204.82V128H203v50H33V81.18A3.16,3.16,0,0,1,36.12,78H86.33a14.92,14.92,0,0,1-3.24-10ZM233,158a10,10,0,0,0-10,10c0,5.52,10,20,10,20s10-14.48,10-20A10,10,0,0,0,233,158ZM33,188H203v16.82a3.16,3.16,0,0,1-3.12,3.18H36.13A3.16,3.16,0,0,1,33,204.82Zm85,5a5,5,0,1,0,5,5A5,5,0,0,0,118,193Zm-10,25h20a24.42,24.42,0,0,0,5.58,15H102.42A24.42,24.42,0,0,0,108,218Z"/></svg>