<svg xmlns="http://www.w3.org/2000/svg" x="0px" y="0px"
width="50" height="50"
viewBox="0 0 172 172"
style=" fill:#000000;"><g fill="none" fill-rule="nonzero" stroke="none" stroke-width="1" stroke-linecap="butt" stroke-linejoin="miter" stroke-miterlimit="10" stroke-dasharray="" stroke-dashoffset="0" font-family="none" font-weight="none" font-size="none" text-anchor="none" style="mix-blend-mode: normal"><path d="M0,172v-172h172v172z" fill="none"></path><g fill="#0c14e9"><path d="M68.8,27.52c-22.22562,0 -40.01687,17.57625 -40.9575,39.56c-16.08469,4.39406 -27.8425,18.90656 -27.8425,36.12c0,20.80125 17.03875,37.84 37.84,37.84h103.2c17.01188,0 30.96,-13.94812 30.96,-30.96c0,-13.41062 -8.93594,-24.79219 -20.9625,-28.81c-0.72562,-20.16969 -17.18656,-36.55 -37.5175,-36.55c-3.57437,0 -6.90687,0.88688 -10.2125,1.8275c-7.39062,-11.24719 -19.995,-19.0275 -34.5075,-19.0275zM68.8,34.4c12.81938,0 24.05313,7.2025 29.9925,17.5225l1.505,2.4725l2.6875,-0.9675c3.44,-1.24969 6.78594,-1.8275 10.535,-1.8275c17.03875,0 30.96,13.92125 30.96,30.96v3.7625l2.6875,0.645c10.09156,2.37844 17.9525,11.99969 17.9525,23.1125c0,13.26281 -10.81719,24.08 -24.08,24.08h-103.2c-17.03875,0 -30.96,-13.92125 -30.96,-30.96c0,-14.88875 10.52156,-27.53344 24.725,-30.315l2.795,-0.5375v-3.5475c0,-19.14844 15.25156,-34.4 34.4,-34.4zM82.56,68.8v39.775l-14.7275,-14.7275l-4.945,4.945l20.64,20.64l2.4725,2.365l2.4725,-2.365l20.64,-20.64l-4.945,-4.945l-14.7275,14.7275v-39.775z"></path></g></g></svg>