<svg xmlns="http://www.w3.org/2000/svg" x="0px" y="0px"
width="50" height="50"
viewBox="0 0 172 172"
style=" fill:#000000;"><g fill="none" fill-rule="nonzero" stroke="none" stroke-width="1" stroke-linecap="butt" stroke-linejoin="miter" stroke-miterlimit="10" stroke-dasharray="" stroke-dashoffset="0" font-family="none" font-weight="none" font-size="none" text-anchor="none" style="mix-blend-mode: normal"><path d="M0,172v-172h172v172z" fill="none"></path><g fill="#0c14e9"><path d="M151.31969,80.98781c-0.81969,-20.14281 -17.46875,-36.26781 -37.79969,-36.26781c-3.50719,0 -6.86656,0.45688 -10.19906,1.3975c-7.69969,-11.52937 -20.69375,-18.5975 -34.52094,-18.5975c-22.07781,0 -40.16469,17.415 -41.22625,39.2375c-16.13844,4.43438 -27.57375,19.33656 -27.57375,36.4425c0,20.86844 16.97156,37.84 37.84,37.84h103.2c17.07906,0 30.96,-13.88094 30.96,-30.96c0,-13.18219 -8.54625,-24.99375 -20.68031,-29.09219zM86,121.82438l-23.07219,-23.07219l4.86437,-4.86437l14.76781,14.76781v-39.85563h6.88v39.85563l14.76781,-14.76781l4.86437,4.86437z"></path></g></g></svg>